<svg fill="none" height="64" viewBox="0 0 61 60" width="64" xmlns="http://www.w3.org/2000/svg" xmlns:xlink="http://www.w3.org/1999/xlink"><linearGradient id="a" gradientUnits="userSpaceOnUse" x1="51.7914" x2="8.57479" y1="51.5926" y2="8.84818"><stop offset=".26" stop-color="#ff1b43"/><stop offset=".71" stop-color="#be0000"/></linearGradient><path d="m37.202 0h-13.5468l-12.1714 5.90962-8.45813 10.70688-3.02567 13.3487 3.02567 13.3488 8.45813 10.7069 12.1714 5.9791h13.5468l12.1714-5.9791 8.4581-10.7069 3.0257-13.3488-3.0257-13.3487-8.4581-10.70688z" fill="url(#a)"/><g fill="#fff"><path d="m39.3594 26.772 2.565 2.4782h-18.9244v1.0899h18.9244l-2.565 2.4782.799.7721 3.9259-3.7952-3.9259-3.7952z"/><path d="m20.7248 32.8184-2.565-2.4783h18.9244v-1.0899h-18.9244l2.565-2.4782-.799-.772-3.9259 3.7952 3.9259 3.7952z"/></g></svg>